<?xml version="1.0" standalone="no"?>
<!DOCTYPE svg PUBLIC "-//W3C//DTD SVG 1.1//EN" "http://www.w3.org/Graphics/SVG/1.1/DTD/svg11.dtd">
<svg xmlns="http://www.w3.org/2000/svg">
<metadata>Copyright (C) 2019 by original authors @ fontello.com</metadata>
<defs>
<font id="fontello" horiz-adv-x="1000" >
<font-face font-family="fontello" font-weight="400" font-stretch="normal" units-per-em="1000" ascent="850" descent="-150" />
<missing-glyph horiz-adv-x="1000" />
<glyph glyph-name="mail" unicode="&#xe800;" d="M929 11v428q-18-20-39-36-149-115-238-189-28-24-46-37t-48-28-57-13h-2q-26 0-57 13t-48 28-46 37q-88 74-238 189-21 16-39 36v-428q0-7 6-13t12-5h822q7 0 12 5t6 13z m0 586v14t-1 7-1 7-3 5-5 4-8 2h-822q-7 0-12-6t-6-12q0-94 83-159 107-84 223-176 4-3 20-17t25-21 25-17 28-16 24-5h2q11 0 24 5t28 16 25 17 25 21 20 17q116 92 224 176 30 24 56 65t26 73z m71 21v-607q0-37-26-63t-63-27h-822q-36 0-63 27t-26 63v607q0 37 26 63t63 26h822q37 0 63-26t26-63z" horiz-adv-x="1000" />

<glyph glyph-name="001-menu" unicode="&#xe801;" d="M58 653h884c32 0 58 26 58 59 0 33-26 59-58 59h-884c-32 0-58-26-58-59 0-33 26-59 58-59z m884-244h-884c-32 0-58-26-58-59 0-33 26-59 58-59h884c32 0 58 26 58 59 0 33-26 59-58 59z m0-362h-884c-32 0-58-26-58-59 0-33 26-59 58-59h884c32 0 58 26 58 59 0 33-26 59-58 59z" horiz-adv-x="1000" />

<glyph glyph-name="002-musica-searcher" unicode="&#xe802;" d="M976-7l-218 217c-1 1-2 2-3 3 42 65 67 142 67 226 0 227-184 411-411 411s-411-184-411-411c0-227 184-411 411-411 84 0 161 25 226 67 1-1 2-2 3-3l217-218c33-32 86-32 119 0 32 33 32 86 0 119z m-565 177c-148 0-268 121-268 269 0 148 120 269 268 269 149 0 269-121 269-269 0-148-120-269-269-269z" horiz-adv-x="1000" />

<glyph glyph-name="credit-card" unicode="&#xe803;" d="M976 726c-17 16-36 24-59 24h-834c-23 0-42-8-58-24-17-17-25-36-25-59v-634c0-23 8-42 25-59 16-16 35-24 58-24h834c23 0 42 8 59 24 16 17 24 36 24 59v634c0 23-8 42-24 59z m-43-693c0-4-1-8-5-11-3-4-7-5-11-5h-834c-4 0-8 1-11 5-4 3-5 7-5 11v317h866v-317z m0 517h-866v117c0 4 1 8 5 11 3 4 7 5 11 5h834c4 0 8-1 11-5 4-3 5-7 5-11v-117l0 0z" horiz-adv-x="1000" />

<glyph glyph-name="share" unicode="&#xe804;" d="M650 200q62 0 106-43t44-107q0-62-44-106t-106-44-106 44-44 106q0 6 1 14t1 12l-260 156q-42-32-92-32-62 0-106 44t-44 106 44 106 106 44q54 0 92-30l260 156q0 4-1 12t-1 12q0 62 44 106t106 44 106-43 44-107q0-62-44-106t-106-44q-52 0-90 32l-262-156q2-8 2-26 0-16-2-24l262-156q36 30 90 30z" horiz-adv-x="800" />

<glyph glyph-name="mail-1" unicode="&#xe805;" d="M105 845h1152q43 0 74-31t31-74v-785q0-44-31-75t-74-30h-1152q-43 0-74 30t-31 75v785q0 43 31 74t74 31z m69-157l507-423 507 423h-1014z m-17-681h1048v558l-494-412h-61l-493 412v-558z" horiz-adv-x="1360" />

<glyph glyph-name="right-open-mini" unicode="&#xe806;" d="M13 180l158 170-158 172q-26 26 0 48 26 26 48 0l192-194q24-26 0-50l-192-194q-22-26-48 0-26 22 0 48z" horiz-adv-x="265" />

<glyph glyph-name="up-open-mini" unicode="&#xe807;" d="M62 230q-26-22-50 0-24 24 0 50l196 190q26 26 48 0l196-190q24-26 0-50-24-22-50 0l-170 158z" horiz-adv-x="464" />

<glyph glyph-name="left-open-mini" unicode="&#xe808;" d="M252 180q26-26 0-48-26-26-48 0l-192 194q-24 24 0 50l192 194q22 26 48 0 26-22 0-48l-156-172z" horiz-adv-x="265" />

<glyph glyph-name="check" unicode="&#xe809;" d="M835 309c-3 1-5 1-8 1-5 0-9-2-13-6l-39-38c-3-4-5-8-5-13v-153c0-27-10-49-29-68-18-19-41-28-67-28h-501c-26 0-49 9-68 28-19 19-28 41-28 68v500c0 27 9 49 28 68 19 19 42 28 68 28h501c8 0 17-1 27-3 2-1 4-1 5-1 5 0 10 2 14 6l29 29c5 5 7 11 6 18-2 6-5 11-11 13-22 10-45 15-70 15h-501c-47 0-88-17-122-50-34-34-51-75-51-123v-500c0-48 17-89 51-123 34-33 75-50 122-50h501c47 0 88 17 122 50 34 34 51 75 51 123v191c0 9-4 14-12 18z m151 345l-67 66c-9 9-21 14-34 14-13 0-24-5-34-14l-389-389-158 158c-10 10-21 14-35 14-13 0-24-4-34-14l-66-66c-10-10-14-21-14-34 0-14 4-25 14-35l259-258c9-10 21-15 34-15 13 0 25 5 34 15l490 489c9 10 14 21 14 34s-5 25-14 35z" horiz-adv-x="1000" />

<glyph glyph-name="phone" unicode="&#xe80a;" d="M691 326c-2-3-2-6-3-10-1-13 9-24 21-25 13-1 25 9 26 21 0 3 0 6 1 11 0 5 0 8 0 11 0 28-5 55-14 81-12 34-32 64-56 90-30 30-67 51-109 63-20 5-41 8-61 8-7 0-14 0-22-1-7-1-13-2-20-3-13-2-21-15-19-27 2-12 15-21 27-18 5 1 10 2 16 2 1 0 2 0 3 0 5 0 10 1 15 1 53 0 103-22 138-58 35-34 56-82 57-136v-2c0-3 0-6 0-8z m128-22c-1-12 9-24 22-25 12-1 24 9 25 21 1 11 1 22 1 33 0 21-2 41-5 62-13 77-50 147-104 201-61 61-143 101-233 108-10 1-21 1-30 1-11 0-22 0-32-1-11-1-22-2-32-4-13-2-22-15-19-26 2-13 15-22 26-19 7 1 13 2 20 3 3 0 6 1 9 1 9 1 19 1 28 1 33 0 64-5 94-14 52-15 99-43 137-81 31-31 56-69 73-110 14-37 23-78 23-121 0-2 0-6 0-9-2-8-3-14-3-21z m33 385c-92 93-218 149-358 149-15 0-29-1-44-2s-29-3-44-6c-12-2-21-14-18-26 2-13 14-21 26-19 7 1 13 2 19 3 7 1 14 2 21 2 13 1 26 2 40 2 126 0 241-51 324-134 83-82 134-197 134-324 0-7 0-15 0-22 0-6-1-12-1-18-1-13 9-25 22-26 12-1 24 9 25 22 1 14 2 29 2 43 0 139-56 265-148 356z m112-589l-172 93c-57 31-59 10-119-54-15-15-42-56-74-48-67 16-193 114-234 159-19 21-103 123-104 156-1 51 109 76 73 172l-76 172c-72 166-274-99-257-222 43-304 576-796 874-634 66 37 155 166 89 206z" horiz-adv-x="1000" />

<glyph glyph-name="lock" unicode="&#xe80b;" d="M854 475h-62v83c0 161-131 292-292 292s-292-131-292-292v-83h-62c-12 0-21-9-21-21v-521c0-46 37-83 83-83h584c46 0 83 37 83 83v521c0 12-9 21-21 21z m-292-435c1-6-1-12-5-16-4-5-9-7-15-7h-84c-6 0-11 2-15 7-4 4-6 10-5 16l13 118c-22 16-34 40-34 67 0 46 37 83 83 83s83-37 83-83c0-27-12-51-34-67l13-118z m105 435h-334v83c0 92 75 167 167 167s167-75 167-167v-83z" horiz-adv-x="1000" />

<glyph glyph-name="man-login" unicode="&#xe80c;" d="M498 292c148 0 268 120 268 267s-120 267-268 267-267-120-267-267 120-267 267-267z m0 464c109 0 197-88 197-197s-88-197-197-197-197 89-197 197 89 197 197 197z m-463-882h930c19 0 35 15 35 35 0 185-150 336-336 336h-328c-185 0-336-150-336-336 0-20 16-35 35-35z m301 300h328c135 0 246-100 263-230h-854c17 129 128 230 263 230z" horiz-adv-x="1000" />

<glyph glyph-name="truck" unicode="&#xe80d;" d="M864 532h-137v182h-636c-50 0-91-41-91-91v-500h91c0-76 61-137 136-137 76 0 137 61 137 137h272c0-76 61-137 137-137 75 0 136 61 136 137h91v227l-136 182z m-637-477c-37 0-68 30-68 68 0 37 31 68 68 68s69-30 69-68c0-38-31-68-69-68z m614 409l89-114h-203v114h114z m-68-409c-38 0-68 30-68 68 0 37 30 68 68 68 38 0 68-30 68-68 0-38-30-68-68-68z" horiz-adv-x="1000" />

<glyph glyph-name="carrito" unicode="&#xe80e;" d="M792 142c-69 0-125-56-125-125s56-125 125-125 125 56 125 125-56 125-125 125z m0-175c-28 0-50 23-50 50s22 50 50 50c27 0 50-22 50-50s-23-50-50-50z m200 657c-7 9-18 14-29 14h-732l-34 141c-4 17-19 29-36 29h-124c-20 0-37-17-37-38s17-37 37-37h94l122-509c4-17 19-29 36-29h583c17 0 32 12 36 29l91 368c3 11 0 23-7 32z m-150-354h-523l-70 293h666l-73-293z m-503-128c-69 0-124-56-124-125s55-125 124-125 125 56 125 125-56 125-125 125z m0-175c-27 0-50 23-50 50s23 50 50 50 50-22 50-50-22-50-50-50z" horiz-adv-x="1000" />

<glyph glyph-name="012-verified-text-paper" unicode="&#xe80f;" d="M334 39h-186c-35 0-65 28-65 63v577c0 36 30 63 65 63h450c36 0 65-27 65-63v-483l83 99v446c0 47-37 85-84 85h-581c-45 0-81-37-81-82v-706c0-46 37-84 84-84h327l-39 33c-17 15-29 33-38 52z m230 597h-374c-23 0-41-19-41-42 0-23 18-41 41-41h374c23 0 41 18 41 41 0 23-18 42-41 42z m0-139h-374c-23 0-41-18-41-41 0-23 18-42 41-42h374c23 0 41 19 41 42 0 23-18 41-41 41z m0-138h-374c-23 0-41-18-41-41 0-23 18-40 41-40h374c23 0 41 17 41 40 0 23-18 41-41 41z m-415-173c0-23 18-40 41-40h140c5 14 14 32 27 46 13 15 28 26 44 35h-211c-23 0-41-18-41-41z m415 41h-31c10-5 20-12 28-20l42-35c1 4 2 9 2 14 0 22-18 41-41 41z m410 111c-30 26-76 22-102-9l-238-279-120 102c-30 26-76 23-102-8-26-30-23-76 8-102l174-150c14-11 30-18 48-18 1 0 3 1 5 1 19 1 37 10 50 25l286 335c26 31 22 76-9 103z" horiz-adv-x="1000" />

<glyph glyph-name="down-open-mini" unicode="&#xe810;" d="M405 470q22 26 48 0 26-22 0-48l-196-192q-22-22-48 0l-196 192q-26 26 0 48 24 24 50 0l170-156z" horiz-adv-x="466" />

<glyph glyph-name="up-open" unicode="&#xe811;" d="M564 280q16-16 16-41t-16-41q-38-38-78 0l-196 188-196-188q-40-38-78 0-16 16-16 41t16 41l234 224q16 16 40 16t40-16z" horiz-adv-x="580" />

<glyph glyph-name="whatsapp-(1)" unicode="&#xe812;" d="M500 850h0c-276 0-500-224-500-500 0-109 35-211 95-293l-62-186 192 62c79-53 173-83 275-83 276 0 500 224 500 500s-224 500-500 500z m291-706c-12-34-60-62-98-71-26-5-60-10-175 38-147 61-242 210-249 220-7 10-59 79-59 151s36 106 51 121c12 13 32 18 51 18 6 0 12 0 17 0 14-1 22-2 31-25 12-29 42-101 45-108 4-7 7-17 2-27-4-10-8-15-16-23-7-9-14-15-22-24-6-8-14-17-5-31 8-15 37-63 81-101 55-50 101-66 117-72 12-5 26-4 35 5 11 12 25 32 39 52 10 14 23 16 36 11 14-5 85-40 100-48 14-7 24-10 28-17 3-6 3-35-9-69z" horiz-adv-x="1000" />

<glyph glyph-name="whatsapp" unicode="&#xe813;" d="M508 850c-271 0-491-221-491-492 0-85 22-170 65-244l-81-242c-2-6-1-12 4-17 3-3 7-5 12-5 1 0 3 0 4 0l264 70c69-35 146-53 223-53 272 0 492 220 492 491s-220 492-492 492z m307-715l-29-29c-37-37-78-56-123-56 0 0 0 0 0 0-60 0-124 34-191 102l-170 169c-54 54-86 105-97 154-14 59 3 113 51 161l29 29c19 19 49 24 73 11 44-23 90-100 96-109 9-16 12-33 8-47-3-11-10-20-20-26-14-11-29-25-32-29-17-25-15-44 7-66l132-132c22-22 41-24 66-7 4 3 18 18 29 32 9 14 22 21 39 21 11 0 23-3 34-9 9-6 86-52 109-96 13-24 9-53-11-73z" horiz-adv-x="1000" />

<glyph glyph-name="006-youtube-rounded-square-logo" unicode="&#xe814;" d="M602 259c-15 0-30-9-44-26v105h-44v-321h44v23c14-18 29-27 44-27 18 0 30 10 35 28 3 9 4 25 4 47v95c0 23-1 39-4 49-5 18-17 27-35 27z m-4-174c0-21-6-32-19-32-7 0-14 4-21 11v145c7 7 14 11 21 11 13 0 19-11 19-33v-102z m142 174c-22 0-39-8-52-25-8-12-13-30-13-56v-84c0-25 5-44 14-56 12-16 30-25 53-25 23 0 40 9 52 27 5 7 8 16 9 26 1 6 2 15 2 28v5h-45c0-4 0-9 0-14s0-8 0-10c0-3 0-4 0-5-3-11-9-17-20-17-14 0-22 11-22 33v43h87v49c0 25-5 44-14 56-12 17-29 25-51 25z m21-94h-43v22c0 22 7 33 22 33 14 0 21-11 21-33v-22z m-327-92c-10-13-19-20-28-20-6 0-9 3-9 10-1 1-1 6-1 17v176h-43v-189c0-17 1-28 4-35 4-12 13-19 27-19 16 0 33 10 50 30v-26h43v239h-43v-183h0z m56 428c14 0 21 11 21 33v102c0 22-7 34-21 34-14 0-21-12-21-34v-102c0-22 7-33 21-33z m323 349h-625c-52 0-96-18-133-55-37-37-55-81-55-132v-625c0-52 18-96 55-133 37-37 81-55 133-55h625c51 0 95 18 132 55 37 37 55 81 55 133v625c0 51-18 95-55 132-37 37-81 55-132 55z m-222-144h43v-178c0-10 0-16 1-16 0-7 4-11 10-11 9 0 18 7 28 20v185h43v-241h-43v26c-18-20-35-30-51-30-13 0-23 6-28 18-2 8-3 20-3 36v191h0z m-165-79c0 26 4 44 14 57 11 17 28 25 50 25 22 0 38-8 51-25 9-13 14-31 14-57v-84c0-26-5-45-14-57-13-16-29-25-51-25-22 0-39 9-50 25-10 13-14 32-14 57v84z m-117 161l34-127 33 127h49l-58-193v-130h-49v130c-4 24-14 59-30 103-3 10-8 25-15 45-6 20-12 35-15 45h51z m536-786c-4-18-13-34-28-47-14-13-30-21-49-23-59-7-149-10-268-10-119 0-209 3-268 10-19 2-35 10-49 23-14 13-24 29-28 47-9 37-13 93-13 170 0 75 4 131 13 169 4 19 14 35 28 48 14 13 30 20 49 22 60 7 149 10 268 10 120 0 209-3 268-10 19-2 35-9 50-22 14-13 23-29 28-48 8-36 12-93 12-169 0-77-4-133-13-170z" horiz-adv-x="1000" />

<glyph glyph-name="instagram-radio" unicode="&#xe815;" d="M864 850h-728c-75 0-136-61-136-136v-728c0-75 61-136 136-136h728c75 0 136 61 136 136v728c0 75-61 136-136 136z m-364-744c-123 0-224 100-224 223 0 124 101 224 224 224s224-100 224-224c0-123-101-223-224-223z m415 388h-202c-51 62-127 100-213 100s-162-38-213-100h-202v195c0 49 40 89 89 89h652c49 0 89-40 89-89v-195z m-415-21c-79 0-144-64-144-144 0-79 65-143 144-143s144 64 144 143c0 80-65 144-144 144z m305 248h-86c-20 0-36-16-36-36v-87c0-19 16-35 36-35h86c20 0 36 16 36 35v87c0 20-16 36-36 36z" horiz-adv-x="1000" />

<glyph glyph-name="003-facebook-logo" unicode="&#xe816;" d="M1000 683c0 88-79 167-167 167h-666c-88 0-167-79-167-167v-666c0-88 79-167 167-167h333v378h-122v166h122v65c0 112 84 213 188 213h134v-166h-134c-15 0-32-18-32-45v-67h166v-166h-166v-378h177c88 0 167 79 167 167v666z" horiz-adv-x="1000" />

<glyph glyph-name="facebook-cuadro" unicode="&#xe817;" d="M561-41v357h119l18 139h-137v88c0 41 11 68 68 68l74 0v124c-13 2-56 6-107 6-106 0-179-65-179-184v-102h-120v-139h120v-357h144z" horiz-adv-x="1000" />

<glyph glyph-name="instagram-cuadro" unicode="&#xe818;" d="M716 702h-432c-75 0-136-61-136-136v-144-288c0-75 61-136 136-136h432c75 0 136 61 136 136v288 144c0 75-61 136-136 136z m39-81l15 0v-16-104l-119 0 0 119 104 1z m-355-199c22 31 59 52 100 52 41 0 78-21 100-52 15-20 24-45 24-72 0-68-56-124-124-124-68 0-124 56-124 124 0 27 9 52 24 72z m383-288c0-37-30-67-67-67h-432c-37 0-67 30-67 67v288h105c-9-22-14-46-14-72 0-106 86-192 192-192 106 0 192 86 192 192 0 26-5 50-14 72h105v-288z" horiz-adv-x="1000" />

<glyph glyph-name="twitter-cuadro" unicode="&#xe819;" d="M891 592c-29-12-60-21-92-25 33 20 58 51 70 89-31-19-65-32-102-39-29 31-71 51-117 51-88 0-160-72-160-161 0-12 1-25 4-36-133 6-251 70-330 167-14-23-22-51-22-80 0-56 28-105 71-134-26 1-51 8-72 20 0 0 0-1 0-2 0-77 55-142 128-157-13-4-27-6-42-6-10 0-20 1-30 3 20-63 80-110 150-111-55-43-124-69-199-69-13 0-26 1-39 3 71-46 156-72 246-72 295 0 456 244 456 456 0 7 0 14 0 20 31 23 58 51 80 83l0 0z" horiz-adv-x="1000" />

<glyph glyph-name="whatsapp-cuadro" unicode="&#xe81a;" d="M891 360c0-210-172-381-384-381-67 0-130 18-185 48l-213-68 70 205c-35 57-55 124-55 196 0 210 171 381 383 381 212 0 384-171 384-381z m-384 320c-178 0-322-143-322-320 0-70 23-135 61-187l-40-119 124 39c51-33 112-53 177-53 178 0 323 144 323 320 0 177-145 320-323 320z m194-408c-3 4-9 7-18 11-10 5-56 28-64 31-9 3-15 4-22-5-6-9-24-30-29-37-6-6-11-7-21-2-9 5-39 15-75 46-28 25-47 56-53 65-5 9 0 14 4 19 5 4 10 11 15 16 4 6 6 10 9 16 3 6 2 12-1 16-2 5-21 51-29 70-8 18-15 15-21 15-5 0-12 1-18 1-6 0-16-2-25-12-9-9-33-32-33-78 0-46 34-90 38-96 5-6 65-104 161-141 96-37 96-25 113-23 17 1 55 22 63 44 8 22 8 41 6 44z" horiz-adv-x="1000" />

<glyph glyph-name="right-open" unicode="&#xe81b;" d="M98 626l226-236q16-16 16-40 0-22-16-38l-226-236q-16-16-40-16t-40 16q-36 36 0 80l186 194-186 196q-36 44 0 80 16 16 41 16t39-16z" horiz-adv-x="340" />

<glyph glyph-name="left-open" unicode="&#xe81c;" d="M242 626q14 16 39 16t41-16q38-36 0-80l-186-196 186-194q38-44 0-80-16-16-40-16t-40 16l-226 236q-16 16-16 38 0 24 16 40 206 214 226 236z" horiz-adv-x="341" />

<glyph glyph-name="down-open" unicode="&#xe81d;" d="M564 422l-234-224q-18-18-40-18t-40 18l-234 224q-16 16-16 41t16 41q38 38 78 0l196-188 196 188q40 38 78 0 16-16 16-41t-16-41z" horiz-adv-x="580" />

<glyph glyph-name="up-open-big" unicode="&#xe81e;" d="M804 130l-372 358-370-358q-26-22-50 0-24 24 0 50l396 390q26 26 48 0l396-390q24-26 0-50-26-22-48 0z" horiz-adv-x="864" />

<glyph glyph-name="right-open-big" unicode="&#xe81f;" d="M13-20l358 370-358 372q-26 26 0 48 26 26 48 0l392-394q24-26 0-50l-392-394q-22-26-48 0-26 22 0 48z" horiz-adv-x="465" />

<glyph glyph-name="left-open-big" unicode="&#xe820;" d="M452-20q26-26 0-48-26-26-48 0l-392 394q-24 24 0 50l392 394q22 26 48 0 26-22 0-48l-358-372z" horiz-adv-x="465" />

<glyph glyph-name="down-open-big" unicode="&#xe821;" d="M63 570l370-356 372 356q22 26 48 0 26-22 0-48l-396-392q-22-22-48 0l-396 392q-26 26 0 48 24 24 50 0z" horiz-adv-x="866" />

<glyph glyph-name="down-dir" unicode="&#xe822;" d="M460 550l-230-400-230 400 460 0z" horiz-adv-x="460" />

<glyph glyph-name="up-dir" unicode="&#xe823;" d="M0 150l230 400 230-400-460 0z" horiz-adv-x="460" />

<glyph glyph-name="front-store" unicode="&#xe824;" d="M944 794h-888v-111h888v111z m56-555v111l-56 278h-888l-56-278v-111h56v-333h555v333h222v-333h111v333h56z m-500-222h-333v222h333v-222z" horiz-adv-x="1000" />

<glyph glyph-name="location-1" unicode="&#xf031;" d="M0 473q0 70 27 134 25 61 74 111 47 47 110 73 63 27 134 27 72 0 135-27 62-26 110-73 48-49 74-111 27-64 27-134t-27-134q-18-40-36-65l-229-347q-22-35-53-35t-55 35l-228 347q-22 31-36 65-27 64-27 134z m217 0q0-53 37-91 38-38 91-38 54 0 91 38 38 37 38 91 0 53-38 91-37 38-91 38-53 0-91-38-37-38-37-91z" horiz-adv-x="691.4" />

<glyph glyph-name="down" unicode="&#xf175;" d="M427 125q4-10-3-19l-195-215q-6-5-13-5-8 0-13 5l-198 215q-8 9-3 19 5 11 16 11h125v696q0 8 5 13t13 5h107q8 0 13-5t5-13v-696h125q11 0 16-11z" horiz-adv-x="428.6" />

<glyph glyph-name="up" unicode="&#xf176;" d="M427 575q-5-11-16-11h-125v-696q0-8-5-13t-13-5h-107q-8 0-13 5t-5 13v696h-125q-12 0-16 11t3 19l195 215q5 5 13 5 7 0 13-5l198-215q7-8 3-19z" horiz-adv-x="428.6" />
</font>
</defs>
</svg>
